<?xml version="1.0" encoding="UTF-8" standalone="no"?>
<!-- Created with Inkscape (http://www.inkscape.org/) -->

<svg
   xmlns:dc="http://purl.org/dc/elements/1.1/"
   xmlns:cc="http://creativecommons.org/ns#"
   xmlns:rdf="http://www.w3.org/1999/02/22-rdf-syntax-ns#"
   xmlns:svg="http://www.w3.org/2000/svg"
   xmlns="http://www.w3.org/2000/svg"
   xmlns:sodipodi="http://sodipodi.sourceforge.net/DTD/sodipodi-0.dtd"
   xmlns:inkscape="http://www.inkscape.org/namespaces/inkscape"
   width="68.983055"
   height="40.099998"
   id="svg2"
   version="1.1"
   inkscape:version="0.48.4 r9939"
   sodipodi:docname="bike.svg">
  <defs
     id="defs4" />
  <sodipodi:namedview
     id="base"
     pagecolor="#ffffff"
     bordercolor="#666666"
     borderopacity="1.0"
     inkscape:pageopacity="0.0"
     inkscape:pageshadow="2"
     inkscape:zoom="25.099977"
     inkscape:cx="22.390023"
     inkscape:cy="13.10758"
     inkscape:document-units="px"
     inkscape:current-layer="layer1"
     showgrid="false"
     inkscape:window-width="1366"
     inkscape:window-height="701"
     inkscape:window-x="0"
     inkscape:window-y="28"
     inkscape:window-maximized="1"
     fit-margin-top="0"
     fit-margin-left="0"
     fit-margin-right="0"
     fit-margin-bottom="0" />
  <metadata
     id="metadata7">
    <rdf:RDF>
      <cc:Work
         rdf:about="">
        <dc:format>image/svg+xml</dc:format>
        <dc:type
           rdf:resource="http://purl.org/dc/dcmitype/StillImage" />
        <dc:title />
      </cc:Work>
    </rdf:RDF>
  </metadata>
  <g
     inkscape:label="Layer 1"
     inkscape:groupmode="layer"
     id="layer1"
     transform="translate(-225.23425,-81.973077)">
    <path
       id="path2987"
       d="m 267.13521,82.434358 c 1.50333,0.546665 2.32331,2.049971 2.32331,4.783286 0,2.733294 0,3.96328 -9.15656,3.826619 -5.1933,-0.13674 -8.19993,-0.410001 -6.83326,-0.819983 4.37329,-1.093326 2.32329,-3.143297 -3.1433,-3.143297 -3.00665,0 -5.46662,0.546663 -5.46662,1.366647 0,0.819985 0.95663,1.366647 2.04996,1.366647 2.46,0 2.73332,3.5533 0.41001,5.056598 -0.95666,0.546679 -4.64662,1.093331 -8.19993,1.093331 -10.79654,0 -16.67313,8.473254 -12.57318,18.176484 2.04996,5.19327 9.56656,9.0199 14.8965,7.65322 1.9133,-0.40998 4.91995,-2.59661 6.69661,-4.78325 3.96328,-4.64662 8.33659,-5.46662 7.24326,-1.22999 -0.41001,1.50331 -0.27335,2.73329 0.40998,2.73329 0.54666,0 1.36666,-1.36664 1.91334,-3.14328 0.40998,-1.64 3.96328,-6.42328 7.78989,-10.52323 3.82664,-4.09995 5.87662,-6.013256 4.78329,-4.09995 -2.45997,3.82662 -2.86996,11.20654 -0.68333,15.30649 2.32331,4.3733 10.11324,6.96991 15.57983,5.19327 7.65325,-2.45997 11.34322,-12.02652 7.51659,-19.26977 -2.18665,-3.826634 -9.29322,-7.106615 -13.93985,-6.149944 -3.27996,0.683326 -4.09996,0.27332 -5.32995,-3.006634 -0.81998,-2.049969 -1.50331,-5.193266 -1.63997,-7.106595 -0.27333,-2.596635 -1.09333,-3.416618 -3.68994,-3.689959 -2.05001,-0.136741 -2.45999,0 -0.95668,0.41 z m -24.59974,16.536496 c 0.54665,0.409993 -0.54668,2.869976 -2.45998,5.329946 -4.23661,5.60326 -4.23661,6.01327 0.40999,6.14993 2.04999,0 4.78328,0.54666 6.14994,0.95664 2.32331,0.95667 2.18665,1.22999 -0.40999,4.09997 -3.96332,4.23661 -8.88326,5.19328 -12.9832,2.45997 -7.1066,-4.64661 -7.51659,-12.1632 -1.09333,-17.21981 3.41662,-2.733304 8.6099,-3.553303 10.38657,-1.776646 z m 6.42326,8.199896 c 0,1.77665 -5.60329,2.45996 -7.24326,0.95665 -0.40999,-0.54665 0.13674,-2.45995 1.36665,-4.23661 2.18664,-3.27995 2.32331,-3.27995 4.09994,-0.95664 0.95669,1.36665 1.77667,3.27995 1.77667,4.2366 z m 4.50997,-3.41662 c 1.91331,5.60327 1.91331,6.55994 0.13674,6.55994 -1.09333,0 -1.91333,-0.95667 -1.91333,-2.05001 0,-1.22997 -0.95665,-3.96326 -2.04997,-6.28657 -1.22999,-2.186664 -1.77667,-4.646633 -1.22999,-5.466618 1.22999,-2.049977 2.59664,-0.13674 5.05661,7.243258 z m 12.98319,-4.099964 c -7.37992,9.019914 -9.15658,8.609894 -12.57321,-2.733288 -0.95664,-2.869975 -0.68332,-3.006635 8.19992,-3.006635 8.88322,0 9.15658,0 4.37329,5.739923 z m 21.45642,1.776644 c 6.96993,6.83325 2.7333,17.62983 -6.83325,17.62983 -6.28658,0 -10.2499,-4.23664 -10.2499,-10.93324 0,-6.28657 2.18666,-6.96991 6.2866,-1.9133 4.50997,5.32994 6.01328,4.37329 1.91331,-1.09333 -1.63997,-2.32331 -2.59662,-4.78328 -2.18663,-5.603264 1.63999,-2.596628 7.65323,-1.639983 11.06987,1.913304 z"
       inkscape:connector-curvature="0"
       inkscape:export-xdpi="90"
       inkscape:export-ydpi="90" />
  </g>
</svg>
