<?xml version="1.0" encoding="UTF-8"?>
<svg xmlns="http://www.w3.org/2000/svg" width="744" height="436" viewBox="0 0 52 30">
<path transform="matrix(0.1,0,0,-.1,.4,1)"
d="m313,4c11-4 17-15 17-35s0-29-67-28c-38,1-60,3-50,6 32,8 17,23-23,23-22,0-40-4-40-10
0-6 7-10 15-10 18,0 20-26 3-37-7-4-34-8-60-8-79,0-122-62-92-133 15-38 70-66 109-56 14,3
36,19 49,35 29,34 61,40 53,9-3-11-2-20 3-20 4,0 10,10 14,23 3,12 29,47 57,77 28,30 43,44
35,30-18-28-21-82-5-112 17-32 74-51 114-38 56,18 83,88 55,141-16,28-68,52-102,45-24-5-30-2-39
22-6,15-11,38-12,52-2,19-8,25-27,27-15,1-18,0-7-3zm-180-121c4-3-4-21-18-39-31-41-31-44
3-45 15,0 35-4 45-7 17-7 16-9-3-30-29-31-65-38-95-18-52,34-55,89-8,126 25,20 63,26 76
13zm47-60c0-13-41-18-53-7-3,4 1,18 10,31 16,24 17,24 30,7 7-10 13-24 13-31zm33,25c14-41
14-48 1-48-8,0-14,7-14,15 0,9-7,29-15,46-9,16-13,34-9,40 9,15 19,1 37-53zm95
30c-54-66-67-63-92,20-7,21-5,22 60,22s67,0 32-42zm157-13c51-50 20-129-50-129-46,0-75,31-75,80
0,46 16,51 46,14 33-39 44-32 14,8-12,17-19,35-16,41 12,19 56,12 81-14z"/>
</svg>