<?xml version="1.0" encoding="UTF-8" standalone="no"?>
<!-- Created with Inkscape (http://www.inkscape.org/) -->

<svg
   xmlns:dc="http://purl.org/dc/elements/1.1/"
   xmlns:cc="http://creativecommons.org/ns#"
   xmlns:rdf="http://www.w3.org/1999/02/22-rdf-syntax-ns#"
   xmlns:svg="http://www.w3.org/2000/svg"
   xmlns="http://www.w3.org/2000/svg"
   xmlns:sodipodi="http://sodipodi.sourceforge.net/DTD/sodipodi-0.dtd"
   xmlns:inkscape="http://www.inkscape.org/namespaces/inkscape"
   width="34.40554"
   height="20.000019"
   id="svg2"
   version="1.1"
   inkscape:version="0.48.4 r9939"
   sodipodi:docname="drawing.svg">
  <defs
     id="defs4" />
  <sodipodi:namedview
     id="base"
     pagecolor="#ffffff"
     bordercolor="#666666"
     borderopacity="1.0"
     inkscape:pageopacity="0.0"
     inkscape:pageshadow="2"
     inkscape:zoom="25.099977"
     inkscape:cx="20.390026"
     inkscape:cy="10.000012"
     inkscape:document-units="px"
     inkscape:current-layer="layer1"
     showgrid="false"
     inkscape:window-width="1366"
     inkscape:window-height="701"
     inkscape:window-x="0"
     inkscape:window-y="28"
     inkscape:window-maximized="1"
     fit-margin-top="0"
     fit-margin-left="0"
     fit-margin-right="0"
     fit-margin-bottom="0" />
  <metadata
     id="metadata7">
    <rdf:RDF>
      <cc:Work
         rdf:about="">
        <dc:format>image/svg+xml</dc:format>
        <dc:type
           rdf:resource="http://purl.org/dc/dcmitype/StillImage" />
        <dc:title></dc:title>
      </cc:Work>
    </rdf:RDF>
  </metadata>
  <g
     inkscape:label="Layer 1"
     inkscape:groupmode="layer"
     id="layer1"
     transform="translate(-227.23425,-102.07306)">
    <path
       id="path2987"
       d="m 248.1325,102.30313 c 0.74979,0.27265 1.15876,1.02243 1.15876,2.38568 0,1.36324 0,1.9767 -4.56687,1.90854 -2.59017,-0.0682 -4.08974,-0.20449 -3.40811,-0.40897 2.18119,-0.5453 1.15875,-1.56773 -1.56773,-1.56773 -1.49958,0 -2.7265,0.27265 -2.7265,0.68162 0,0.40897 0.47713,0.68162 1.02243,0.68162 1.22693,0 1.36325,1.77222 0.20449,2.522 -0.47714,0.27265 -2.31752,0.5453 -4.08974,0.5453 -5.38481,0 -8.31579,4.22606 -6.27092,9.06558 1.02243,2.59016 4.77135,4.49871 7.42968,3.81708 0.95427,-0.20448 2.45384,-1.29508 3.33996,-2.38567 1.9767,-2.31752 4.1579,-2.72649 3.6126,-0.61346 -0.20449,0.74978 -0.13633,1.36324 0.20448,1.36324 0.27265,0 0.68163,-0.68162 0.95428,-1.56773 0.20448,-0.81795 1.9767,-3.20363 3.88524,-5.24849 1.90855,-2.04487 2.93098,-2.99914 2.38568,-2.04487 -1.22692,1.90854 -1.4314,5.5893 -0.34081,7.63417 1.15876,2.18119 5.04401,3.47627 7.77049,2.59016 3.81709,-1.22692 5.65747,-5.99827 3.74893,-9.61087 -1.0906,-1.90854 -4.63503,-3.54444 -6.95255,-3.0673 -1.63589,0.34081 -2.04487,0.13632 -2.65833,-1.49957 -0.40897,-1.02243 -0.74978,-2.59016 -0.81794,-3.54444 -0.13633,-1.29508 -0.5453,-1.70405 -1.84038,-1.84038 -1.02244,-0.0682 -1.22692,0 -0.47714,0.20449 z m -12.26921,8.24763 c 0.27265,0.20449 -0.27265,1.43141 -1.22692,2.65833 -2.11303,2.79465 -2.11303,2.99914 0.20449,3.0673 1.02243,0 2.38567,0.27265 3.0673,0.47713 1.15876,0.47714 1.0906,0.61346 -0.20449,2.04487 -1.97671,2.11303 -4.43055,2.59017 -6.47541,1.22692 -3.54444,-2.31751 -3.74893,-6.06644 -0.5453,-8.58844 1.70405,-1.36324 4.29422,-1.77222 5.18033,-0.88611 z m 3.20363,4.08973 c 0,0.88611 -2.79466,1.22692 -3.6126,0.47714 -0.20449,-0.27265 0.0682,-1.22692 0.68162,-2.11303 1.09059,-1.63589 1.15876,-1.63589 2.04486,-0.47713 0.47715,0.68162 0.88612,1.63589 0.88612,2.11302 z m 2.24936,-1.70405 c 0.95427,2.79465 0.95427,3.27179 0.0682,3.27179 -0.5453,0 -0.95428,-0.47714 -0.95428,-1.02244 0,-0.61346 -0.47713,-1.9767 -1.02243,-3.13546 -0.61346,-1.0906 -0.88612,-2.31752 -0.61346,-2.72649 0.61346,-1.02243 1.29508,-0.0682 2.522,3.6126 z m 6.47541,-2.04487 c -3.68076,4.49871 -4.56687,4.29422 -6.27093,-1.36324 -0.47713,-1.43141 -0.34081,-1.49957 4.08974,-1.49957 4.43054,0 4.56687,0 2.18119,2.86281 z m 10.70147,0.88611 c 3.47627,3.40811 1.36324,8.79293 -3.40811,8.79293 -3.13546,0 -5.11217,-2.11303 -5.11217,-5.45298 0,-3.13546 1.0906,-3.47627 3.13546,-0.95427 2.24936,2.65833 2.99914,2.18119 0.95427,-0.5453 -0.81794,-1.15876 -1.29508,-2.38568 -1.09059,-2.79465 0.81795,-1.29508 3.81708,-0.81795 5.52114,0.95427 z"
       inkscape:connector-curvature="0"
       inkscape:export-xdpi="90"
       inkscape:export-ydpi="90" />
  </g>
</svg>
